<svg xmlns="http://www.w3.org/2000/svg" viewBox="0 0 30 30">
  <!-- References the "hatch" pattern defined in SvgStringRenderer.defs() (not self-contained when viewed
       standalone outside the app — the checkered quadrant renders unfilled here). -->
  <line x1="3" y1="5" x2="14" y2="5" stroke="#333" stroke-width="0.5"/>
  <line x1="3" y1="8" x2="14" y2="8" stroke="#333" stroke-width="0.57"/>
  <line x1="3" y1="11" x2="14" y2="11" stroke="#333" stroke-width="0.63"/>
  <line x1="3" y1="14" x2="14" y2="14" stroke="#333" stroke-width="0.7"/>
  <path d="M 15,15 L 15.0,3.0 A 12,12 0 0,1 27.0,15.0 Z" fill="url(#hatch)"/>
  <line x1="15" y1="15" x2="15.0" y2="3.0" stroke="#333" stroke-width="0.7"/>
  <line x1="15" y1="15" x2="27.0" y2="15.0" stroke="#333" stroke-width="1.08"/>
  <line x1="15" y1="15" x2="23.49" y2="23.49" stroke="#333" stroke-width="1.46"/>
  <line x1="15" y1="15" x2="15.0" y2="27.0" stroke="#333" stroke-width="1.84"/>
  <line x1="15" y1="15" x2="6.51" y2="23.49" stroke="#333" stroke-width="2.22"/>
  <line x1="15" y1="15" x2="3.0" y2="15.0" stroke="#333" stroke-width="2.6"/>
  <path d="M 15.0,3.0 A 12,12 0 0,1 27.0,15.0" fill="none" stroke="#333" stroke-width="1.08"/>
  <path d="M 27.0,15.0 A 12,12 0 0,1 23.49,23.49" fill="none" stroke="#333" stroke-width="1.46"/>
  <path d="M 23.49,23.49 A 12,12 0 0,1 15.0,27.0" fill="none" stroke="#333" stroke-width="1.84"/>
  <path d="M 15.0,27.0 A 12,12 0 0,1 6.51,23.49" fill="none" stroke="#333" stroke-width="2.22"/>
  <path d="M 6.51,23.49 A 12,12 0 0,1 3.0,15.0" fill="none" stroke="#333" stroke-width="2.6"/>
  <circle cx="15" cy="15" r="1.3" fill="#333"/>
</svg>
