<?xml version="1.0" encoding="UTF-8"?>
<svg xmlns="http://www.w3.org/2000/svg"
     viewBox="-125 -125 437 537"
     width="437" height="537">
<defs>
  <pattern id="hatch" width="6" height="6"
           patternTransform="rotate(45 0 0)" patternUnits="userSpaceOnUse">
    <line x1="0" y1="0" x2="0" y2="6" stroke="#888" stroke-width="1.2"/>
  </pattern>

  <!-- ── Door symbols (viewBox 0 0 30 30, open gap fills corridor width) ── -->
  <symbol id="door-open" viewBox="0 0 30 30">
    <rect x="0"  y="12" width="30" height="6" fill="white"/>
    <rect x="0"  y="11" width="4"  height="8" fill="#333"/>
    <rect x="26" y="11" width="4"  height="8" fill="#333"/>
  </symbol>
  <symbol id="door-closed" viewBox="0 0 30 30">
    <rect x="0" y="12" width="30" height="6" fill="white"/>
    <rect x="2" y="13" width="26" height="4" fill="#333"/>
  </symbol>
  <symbol id="door-locked" viewBox="0 0 30 30">
    <rect x="0" y="12" width="30" height="6" fill="white"/>
    <rect x="2" y="11" width="26" height="8" fill="#333"/>
    <rect x="4" y="13" width="22" height="4" fill="white"/>
  </symbol>
  <symbol id="door-secret" viewBox="0 0 30 30">
    <line x1="0" y1="15" x2="30" y2="15"
          stroke="#888" stroke-width="1.2" stroke-dasharray="6,6"/>
  </symbol>

  <!-- ── Room feature symbols (viewBox 0 0 30 30, one grid cell) ── -->
  <symbol id="feat-ladder" viewBox="0 0 30 30">
    <line x1="8"  y1="3"  x2="8"  y2="27" stroke="#333" stroke-width="1.5"/>
    <line x1="22" y1="3"  x2="22" y2="27" stroke="#333" stroke-width="1.5"/>
    <line x1="8"  y1="7"  x2="22" y2="7"  stroke="#333" stroke-width="1"/>
    <line x1="8"  y1="13" x2="22" y2="13" stroke="#333" stroke-width="1"/>
    <line x1="8"  y1="19" x2="22" y2="19" stroke="#333" stroke-width="1"/>
    <line x1="8"  y1="25" x2="22" y2="25" stroke="#333" stroke-width="1"/>
  </symbol>
  <!-- Wall-placed feature symbol (30×6, designed to sit on a wall) -->
  <symbol id="feat-window" viewBox="0 0 30 6">
    <rect x="0"  y="0" width="30" height="6" fill="white"/>
    <rect x="0"  y="1" width="8"  height="4" fill="#cce" stroke="#99c" stroke-width="0.5"/>
    <rect x="11" y="1" width="8"  height="4" fill="#cce" stroke="#99c" stroke-width="0.5"/>
    <rect x="22" y="1" width="8"  height="4" fill="#cce" stroke="#99c" stroke-width="0.5"/>
  </symbol>
</defs>
<rect x="-125" y="-125" width="437" height="537" fill="white"/>

<rect x="42" y="-15" width="103" height="30" fill="white"/>
<rect x="172" y="42" width="30" height="103" fill="white"/>
<rect x="42" y="172" width="103" height="30" fill="white"/>
<rect x="-45" y="-45" width="90" height="90" fill="white"/>
<rect x="142" y="-45" width="90" height="90" fill="white"/>
<rect x="142" y="142" width="90" height="90" fill="white"/>
<rect x="-45" y="142" width="90" height="90" fill="white"/>
<line x1="42" y1="-15" x2="145" y2="-15" stroke="#333" stroke-width="1.5"/>
<line x1="42" y1="15" x2="145" y2="15" stroke="#333" stroke-width="1.5"/>
<line x1="172" y1="42" x2="172" y2="145" stroke="#333" stroke-width="1.5"/>
<line x1="202" y1="42" x2="202" y2="145" stroke="#333" stroke-width="1.5"/>
<line x1="42" y1="172" x2="145" y2="172" stroke="#333" stroke-width="1.5"/>
<line x1="42" y1="202" x2="145" y2="202" stroke="#333" stroke-width="1.5"/>
<rect x="-45" y="-45" width="90" height="90" fill="none" stroke="#333" stroke-width="1.5"/>
<rect x="142" y="-45" width="90" height="90" fill="none" stroke="#333" stroke-width="1.5"/>
<rect x="142" y="142" width="90" height="90" fill="none" stroke="#333" stroke-width="1.5"/>
<rect x="-45" y="142" width="90" height="90" fill="none" stroke="#333" stroke-width="1.5"/>
<line x1="-15" y1="-45" x2="-15" y2="45" stroke="#d8d8d8" stroke-width="0.5"/>
<line x1="15" y1="-45" x2="15" y2="45" stroke="#d8d8d8" stroke-width="0.5"/>
<line x1="-45" y1="-15" x2="45" y2="-15" stroke="#d8d8d8" stroke-width="0.5"/>
<line x1="-45" y1="15" x2="45" y2="15" stroke="#d8d8d8" stroke-width="0.5"/>
<line x1="172" y1="-45" x2="172" y2="45" stroke="#d8d8d8" stroke-width="0.5"/>
<line x1="202" y1="-45" x2="202" y2="45" stroke="#d8d8d8" stroke-width="0.5"/>
<line x1="142" y1="-15" x2="232" y2="-15" stroke="#d8d8d8" stroke-width="0.5"/>
<line x1="142" y1="15" x2="232" y2="15" stroke="#d8d8d8" stroke-width="0.5"/>
<line x1="172" y1="142" x2="172" y2="232" stroke="#d8d8d8" stroke-width="0.5"/>
<line x1="202" y1="142" x2="202" y2="232" stroke="#d8d8d8" stroke-width="0.5"/>
<line x1="142" y1="172" x2="232" y2="172" stroke="#d8d8d8" stroke-width="0.5"/>
<line x1="142" y1="202" x2="232" y2="202" stroke="#d8d8d8" stroke-width="0.5"/>
<line x1="-15" y1="142" x2="-15" y2="232" stroke="#d8d8d8" stroke-width="0.5"/>
<line x1="15" y1="142" x2="15" y2="232" stroke="#d8d8d8" stroke-width="0.5"/>
<line x1="-45" y1="172" x2="45" y2="172" stroke="#d8d8d8" stroke-width="0.5"/>
<line x1="-45" y1="202" x2="45" y2="202" stroke="#d8d8d8" stroke-width="0.5"/>
<line x1="72" y1="-15" x2="72" y2="15" stroke="#d8d8d8" stroke-width="0.5"/>
<line x1="102" y1="-15" x2="102" y2="15" stroke="#d8d8d8" stroke-width="0.5"/>
<line x1="132" y1="-15" x2="132" y2="15" stroke="#d8d8d8" stroke-width="0.5"/>
<line x1="172" y1="72" x2="202" y2="72" stroke="#d8d8d8" stroke-width="0.5"/>
<line x1="172" y1="102" x2="202" y2="102" stroke="#d8d8d8" stroke-width="0.5"/>
<line x1="172" y1="132" x2="202" y2="132" stroke="#d8d8d8" stroke-width="0.5"/>
<line x1="72" y1="172" x2="72" y2="202" stroke="#d8d8d8" stroke-width="0.5"/>
<line x1="102" y1="172" x2="102" y2="202" stroke="#d8d8d8" stroke-width="0.5"/>
<line x1="132" y1="172" x2="132" y2="202" stroke="#d8d8d8" stroke-width="0.5"/>

<rect x="43.0" y="-15.0" width="4" height="30.0" fill="white"/>
<line x1="45.0" y1="-15.0" x2="66.2" y2="6.2" stroke="#333" stroke-width="1.2"/>
<path d="M 66.2,6.2 A 30.0,30.0 0 0,1 45.0,15.0" fill="none" stroke="#333" stroke-width="0.8"/>
<rect x="140.3" y="-15.0" width="4" height="30.0" fill="white"/>
<line x1="142.3" y1="-15.0" x2="121.1" y2="6.2" stroke="#333" stroke-width="1.2"/>
<path d="M 121.1,6.2 A 30.0,30.0 0 0,0 142.3,15.0" fill="none" stroke="#333" stroke-width="0.8"/>
<rect x="172.3" y="43.0" width="30.0" height="4" fill="white"/>
<line x1="172.3" y1="45.0" x2="193.5" y2="23.8" stroke="#333" stroke-width="1.2"/>
<path d="M 193.5,23.8 A 30.0,30.0 0 0,1 202.3,45.0" fill="none" stroke="#333" stroke-width="0.8"/>
<rect x="172.3" y="140.3" width="30.0" height="4" fill="white"/>
<line x1="172.3" y1="142.3" x2="193.5" y2="163.5" stroke="#333" stroke-width="1.2"/>
<path d="M 193.5,163.5 A 30.0,30.0 0 0,0 202.3,142.3" fill="none" stroke="#333" stroke-width="0.8"/>
<use href="#door-secret" x="127" y="172" width="30" height="30" preserveAspectRatio="none" transform="rotate(90,142,187)"/>
<text x="142" y="166" text-anchor="middle" dominant-baseline="middle" fill="#888" font-size="8" font-family="sans-serif" font-weight="bold">S</text>
<use href="#door-secret" x="30" y="172" width="30" height="30" preserveAspectRatio="none" transform="rotate(90,45,187)"/>
<text x="45" y="166" text-anchor="middle" dominant-baseline="middle" fill="#888" font-size="8" font-family="sans-serif" font-weight="bold">S</text>
<text x="0" y="-32" text-anchor="middle" dominant-baseline="auto" fill="#333" font-size="9" font-family="sans-serif" font-weight="bold">1</text>
<text x="187" y="-32" text-anchor="middle" dominant-baseline="auto" fill="#333" font-size="9" font-family="sans-serif" font-weight="bold">2</text>
<text x="187" y="155" text-anchor="middle" dominant-baseline="auto" fill="#333" font-size="9" font-family="sans-serif" font-weight="bold">3</text>
<text x="0" y="155" text-anchor="middle" dominant-baseline="auto" fill="#333" font-size="9" font-family="sans-serif" font-weight="bold">4</text>
<text x="-65" y="272" fill="#333" font-size="10" font-family="sans-serif" font-weight="bold">Legend</text>
<text x="-65" y="286" fill="#555" font-size="9" font-family="serif" font-style="italic">1 - A</text>
<text x="-65" y="300" fill="#555" font-size="9" font-family="serif" font-style="italic">2 - B</text>
<text x="-65" y="314" fill="#555" font-size="9" font-family="serif" font-style="italic">3 - C</text>
<text x="-65" y="328" fill="#555" font-size="9" font-family="serif" font-style="italic">4 - D</text>
</svg>