<?xml version="1.0" encoding="UTF-8"?>
<svg xmlns="http://www.w3.org/2000/svg"
     viewBox="-170 -140 832 366"
     width="832" height="366">
<defs>
  <pattern id="hatch" width="6" height="6"
           patternTransform="rotate(45 0 0)" patternUnits="userSpaceOnUse">
    <line x1="0" y1="0" x2="0" y2="6" stroke="#888" stroke-width="1.2"/>
  </pattern>

  <!-- ── Door symbols (viewBox 0 0 30 30, open gap fills corridor width) ── -->
  <symbol id="door-open" viewBox="0 0 30 30">
    <rect x="0"  y="12" width="30" height="6" fill="white"/>
    <rect x="0"  y="11" width="4"  height="8" fill="#333"/>
    <rect x="26" y="11" width="4"  height="8" fill="#333"/>
  </symbol>
  <symbol id="door-closed" viewBox="0 0 30 30">
    <rect x="0" y="12" width="30" height="6" fill="white"/>
    <rect x="2" y="13" width="26" height="4" fill="#333"/>
  </symbol>
  <symbol id="door-locked" viewBox="0 0 30 30">
    <rect x="0" y="12" width="30" height="6" fill="white"/>
    <rect x="2" y="11" width="26" height="8" fill="#333"/>
    <rect x="4" y="13" width="22" height="4" fill="white"/>
  </symbol>
  <symbol id="door-secret" viewBox="0 0 30 30">
    <line x1="0" y1="15" x2="30" y2="15"
          stroke="#888" stroke-width="1.2" stroke-dasharray="6,6"/>
  </symbol>

  <!-- ── Room feature symbols (viewBox 0 0 30 30, one grid cell) ── -->
  <symbol id="feat-ladder" viewBox="0 0 30 30">
    <line x1="8"  y1="3"  x2="8"  y2="27" stroke="#333" stroke-width="1.5"/>
    <line x1="22" y1="3"  x2="22" y2="27" stroke="#333" stroke-width="1.5"/>
    <line x1="8"  y1="7"  x2="22" y2="7"  stroke="#333" stroke-width="1"/>
    <line x1="8"  y1="13" x2="22" y2="13" stroke="#333" stroke-width="1"/>
    <line x1="8"  y1="19" x2="22" y2="19" stroke="#333" stroke-width="1"/>
    <line x1="8"  y1="25" x2="22" y2="25" stroke="#333" stroke-width="1"/>
  </symbol>
  <!-- Wall-placed feature symbol (30×6, designed to sit on a wall) -->
  <symbol id="feat-window" viewBox="0 0 30 6">
    <rect x="0"  y="0" width="30" height="6" fill="white"/>
    <rect x="0"  y="1" width="8"  height="4" fill="#cce" stroke="#99c" stroke-width="0.5"/>
    <rect x="11" y="1" width="8"  height="4" fill="#cce" stroke="#99c" stroke-width="0.5"/>
    <rect x="22" y="1" width="8"  height="4" fill="#cce" stroke="#99c" stroke-width="0.5"/>
  </symbol>
</defs>
<rect x="-170" y="-140" width="832" height="366" fill="white"/>
<rect x="-170" y="-140" width="832" height="366" fill="url(#hatch)"/>
<rect x="87" y="-15" width="105" height="30" fill="white"/>
<rect x="336" y="-15" width="99" height="30" fill="white"/>
<rect x="-90" y="-60" width="180" height="120" fill="white"/>
<rect x="189" y="-60" width="150" height="120" fill="white"/>
<rect x="432" y="-45" width="150" height="90" fill="white"/>
<line x1="87" y1="-15" x2="192" y2="-15" stroke="#333" stroke-width="1.5"/>
<line x1="87" y1="15" x2="192" y2="15" stroke="#333" stroke-width="1.5"/>
<line x1="336" y1="-15" x2="435" y2="-15" stroke="#333" stroke-width="1.5"/>
<line x1="336" y1="15" x2="435" y2="15" stroke="#333" stroke-width="1.5"/>
<rect x="-90" y="-60" width="180" height="120" fill="none" stroke="#333" stroke-width="1.5"/>
<rect x="189" y="-60" width="150" height="120" fill="none" stroke="#333" stroke-width="1.5"/>
<rect x="432" y="-45" width="150" height="90" fill="none" stroke="#333" stroke-width="1.5"/>
<line x1="-60" y1="-60" x2="-60" y2="60" stroke="#d8d8d8" stroke-width="0.5"/>
<line x1="-30" y1="-60" x2="-30" y2="60" stroke="#d8d8d8" stroke-width="0.5"/>
<line x1="0" y1="-60" x2="0" y2="60" stroke="#d8d8d8" stroke-width="0.5"/>
<line x1="30" y1="-60" x2="30" y2="60" stroke="#d8d8d8" stroke-width="0.5"/>
<line x1="60" y1="-60" x2="60" y2="60" stroke="#d8d8d8" stroke-width="0.5"/>
<line x1="-90" y1="-30" x2="90" y2="-30" stroke="#d8d8d8" stroke-width="0.5"/>
<line x1="-90" y1="0" x2="90" y2="0" stroke="#d8d8d8" stroke-width="0.5"/>
<line x1="-90" y1="30" x2="90" y2="30" stroke="#d8d8d8" stroke-width="0.5"/>
<line x1="219" y1="-60" x2="219" y2="60" stroke="#d8d8d8" stroke-width="0.5"/>
<line x1="249" y1="-60" x2="249" y2="60" stroke="#d8d8d8" stroke-width="0.5"/>
<line x1="279" y1="-60" x2="279" y2="60" stroke="#d8d8d8" stroke-width="0.5"/>
<line x1="309" y1="-60" x2="309" y2="60" stroke="#d8d8d8" stroke-width="0.5"/>
<line x1="189" y1="-30" x2="339" y2="-30" stroke="#d8d8d8" stroke-width="0.5"/>
<line x1="189" y1="0" x2="339" y2="0" stroke="#d8d8d8" stroke-width="0.5"/>
<line x1="189" y1="30" x2="339" y2="30" stroke="#d8d8d8" stroke-width="0.5"/>
<line x1="462" y1="-45" x2="462" y2="45" stroke="#d8d8d8" stroke-width="0.5"/>
<line x1="492" y1="-45" x2="492" y2="45" stroke="#d8d8d8" stroke-width="0.5"/>
<line x1="522" y1="-45" x2="522" y2="45" stroke="#d8d8d8" stroke-width="0.5"/>
<line x1="552" y1="-45" x2="552" y2="45" stroke="#d8d8d8" stroke-width="0.5"/>
<line x1="432" y1="-15" x2="582" y2="-15" stroke="#d8d8d8" stroke-width="0.5"/>
<line x1="432" y1="15" x2="582" y2="15" stroke="#d8d8d8" stroke-width="0.5"/>
<line x1="117" y1="-15" x2="117" y2="15" stroke="#d8d8d8" stroke-width="0.5"/>
<line x1="147" y1="-15" x2="147" y2="15" stroke="#d8d8d8" stroke-width="0.5"/>
<line x1="177" y1="-15" x2="177" y2="15" stroke="#d8d8d8" stroke-width="0.5"/>
<line x1="366" y1="-15" x2="366" y2="15" stroke="#d8d8d8" stroke-width="0.5"/>
<line x1="396" y1="-15" x2="396" y2="15" stroke="#d8d8d8" stroke-width="0.5"/>
<line x1="426" y1="-15" x2="426" y2="15" stroke="#d8d8d8" stroke-width="0.5"/>
<svg x="-86" y="-15" width="30" height="30" viewBox="0 0 512 512"><path fill="currentColor" d="M346.951 24.582L299.193 72.34l-101.136-7.024l-40.97 80.737l68.688 25.35l37.153-19.936l8.511 15.861l-44.293 23.768l-79.7-29.416l-70.19 55.341l35.117 58.995l-.375.2l13.014 21.585l29.134 2.361l55.06-35.123l9.679 15.176l-60.16 38.377l-44.364-3.596l-18.23-30.234l-56.8 30.586l33.712 61.804l-33.713 40.735L18 444.177V494h170.62l-5.6-45.592a261 261 0 0 1-5.147-4.512c-4.186-3.761-5.89-5.444-8.027-7.484l-73.13 21.797l-21.339-20.484l12.467-12.985l13.777 13.225l73.068-21.78l3.784 3.667s4.24 4.09 9.216 8.636l37.797-37.248l8.133 79.54l6.3-93.444l10.364 28.387l6.281-45.112l3.14-3.091l-.29-.233l22.486-27.974l.465-.907l.188.096l11.453-14.248l14.03 11.277l-9.122 11.348l67.803 34.715l27.008-9.489l22.478 17.71l22.924-12.036l8.367 15.938l-33.262 17.46l-23.875-18.81l-24.964 8.772l-9.584-4.907l39.04 87.842L383.923 494H494v-28.512L462.713 478.2l-6.776-16.678L494 446.06V211.176l-23.438-26.463l-21.654-67.371l-33.547 32.666l-107.77-13.873l-28.019-29.096l12.967-12.486l23.629 24.539l92.867 11.953l31.442-30.615l-52.79-61.801zm27.53 177.74l34.177 41.428l28.863-6.56l-4.136-13.59l17.22-5.243l9.77 32.098l-58.543 13.307l-31.377-38.033l-33.086 19.853l-9.262-15.436z"/></svg>
<svg x="-15" y="-15" width="30" height="30" viewBox="0 0 512 512"><path fill="currentColor" d="M256 16c-5.718 51.466-24.204 93.997-32.813 124.687c-8.896 2.525-17.386 5.918-25.312 10.313c-27.803-15.645-71.13-32.34-111.563-64.688c32.348 40.434 49.043 83.76 64.688 111.563c-4.395 7.926-7.788 16.416-10.313 25.312C109.997 231.797 67.467 250.282 16 256c51.466 5.718 93.997 24.204 124.687 32.812c2.525 8.897 5.918 17.387 10.313 25.313c-15.645 27.802-32.34 71.128-64.688 111.562c40.434-32.347 83.76-49.042 111.563-64.687c7.926 4.395 16.416 7.788 25.312 10.312c8.61 30.69 27.095 73.22 32.813 124.688c5.718-51.467 24.204-93.998 32.812-124.688c8.897-2.524 17.387-5.917 25.313-10.312c27.802 15.645 71.128 32.34 111.562 64.687c-32.347-40.434-49.042-83.76-64.687-111.562c4.395-7.926 7.788-16.416 10.312-25.313c30.69-8.608 73.22-27.094 124.688-32.812c-51.467-5.718-93.998-24.204-124.688-32.813c-2.524-8.896-5.917-17.386-10.312-25.312c15.645-27.803 32.34-71.13 64.687-111.563c-40.434 32.348-83.76 49.043-111.562 64.688c-7.926-4.395-16.416-7.788-25.313-10.313C280.204 109.997 261.718 67.467 256 16m0 180c16.57 0 31.798 6.486 42.657 17.343S316 239.43 316 256s-6.486 31.798-17.343 42.657C287.797 309.515 272.57 316 256 316s-31.8-6.486-42.657-17.343C202.483 287.797 196 272.57 196 256s6.486-31.8 17.343-42.657C224.2 202.483 239.43 196 256 196"/></svg>
<svg x="-15" y="-15" width="30" height="30" viewBox="0 0 512 512"><path fill="currentColor" d="M18 18v109.8l41.97 274L109.4 79.5l31.5 161.9l19.5-78l27.8 161.2l55.4-272.9l54 172.4l14.2-35.2l60.8 289.4l59.2-320.1l24.9 57.3c-2.9 6-7.1 14-5.4 21.1c1.1 4.8 4.7 11.2 9.6 11.1c4.7-.1 7.7-6.5 8.5-11.1c1.4-7.6-3.6-16.2-6.8-22.1l31.4-74.8V18zm170.1 329.2s-10.4 17.8-8.5 27c1 4.8 4.7 11.2 9.6 11.1c4.7-.1 7.8-6.5 8.5-11.1c1.5-9.4-9.6-27-9.6-27"/></svg>
<svg x="249" y="-30" width="30" height="30" viewBox="0 0 512 512"><path fill="currentColor" d="M256 25c-62.125 0-111.195 19.114-145.31 57.02C77.922 118.427 58.765 173.19 57.286 247h53.91c.117-9.742.472-20.34 1.42-31.37c-.22-.238-.444-.467-.66-.714c-7.73-8.838-10.903-21.857-8.908-39.705c.84-10.634 6.332-19.899 14.892-23.652c3.153-1.383 6.422-2.13 9.801-2.399a154 154 0 0 1 4.21-9.185a127 127 0 0 1 3.048-5.707V103h25.105C181.958 83.704 213.081 71 256 71s74.042 12.704 95.895 32H377v31.268a127 127 0 0 1 3.049 5.707a154 154 0 0 1 4.209 9.185c3.379.27 6.648 1.016 9.8 2.399c8.56 3.753 14.054 13.018 14.893 23.652c1.995 17.848-1.178 30.867-8.908 39.705c-.216.247-.44.476-.66.715c.948 11.029 1.303 21.627 1.42 31.369h53.91c-1.479-73.81-20.636-128.573-53.402-164.98C367.195 44.114 318.125 25 256 25m-103 96v14h206v-14zm0 32v62h14v-24.896c-.358-1.28-.005-2.142 0-2.633V153zm32 0v7.38c3.425-3 7.44-5.664 12.074-7.38zm32.871 0c1.893.826 3.627 1.888 5.113 3.174c3.838 3.321 5.9 7.543 7.13 11.437c1.34 4.25 1.884 8.396 2.2 11.944l.223-.33l5.027-7.463l14.928 10.056l-5.03 7.463l-11.232 16.672C241.815 209.145 248.817 211 256 211s14.185-1.855 19.77-5.047l-11.233-16.672l-5.03-7.463l14.929-10.056l5.027 7.463l.223.33c.316-3.548.86-7.693 2.2-11.944c1.23-3.894 3.292-8.116 7.13-11.437c1.486-1.286 3.22-2.348 5.113-3.174H217.87zm97.055 0c4.634 1.716 8.649 4.38 12.074 7.38V153zM345 153v34.47c.005.492.358 1.353 0 2.634V215h14v-62zm-213.695 14.203c-2.818-.048-4.907.299-6.137.838c-2.46 1.078-3.699 2.077-4.195 8.639l-.012.17l-.02.17c-1.738 15.228.614 21.534 4.563 26.048c2.108 2.41 5.409 4.558 9.496 6.727v-42.287c-1.307-.15-2.601-.286-3.695-.305m249.39 0c-1.094.019-2.388.156-3.695.305v42.287c4.087-2.17 7.388-4.316 9.496-6.727c3.949-4.514 6.3-10.82 4.563-26.048l-.02-.17l-.012-.17c-.496-6.562-1.736-7.56-4.195-8.639c-1.23-.54-3.319-.886-6.137-.838m-172.658 1.795c-5.602.023-11.098 4.21-15.598 9.629l21.48.223c-.247-2.165-.49-4.3-.97-5.823c-.596-1.89-1.28-2.844-1.742-3.244s-.86-.794-3.17-.785m95.926 0c-2.31-.01-2.708.385-3.17.785s-1.146 1.354-1.742 3.244c-.48 1.522-.723 3.658-.97 5.823l21.48-.223c-4.5-5.42-9.996-9.606-15.598-9.629M185 196.548V233h-30l42.4 31.8c34.664 25.998 86.703 22.873 117.2 0L357 233h-30v-36.451l-35.617.369l8.222 12.203l-5.242 5.242C284.243 224.484 270 229 256 229s-28.242-4.516-38.363-14.637l-5.242-5.242l8.222-12.205l-35.617-.367zm7 40.454h128v17.996H192zm-57.977 2.766l-12.949 64.752l5.873 70.482h120.055v-35.275l-8.78-8.778l-28.097 14.049h-43.123v-60.725l11.297-11.298zm243.954 0L333.7 272.975l11.297 11.298v60.725h-43.123l-28.098-14.049l-8.779 8.778v35.275h120.055l5.873-70.482l-12.95-64.752zm-59.05 43.884c-35.576 22.626-86.937 25.006-125.874.022l-8.055 8.053v35.275h20.877l35.902-17.951L256 323.275l14.223-14.224l35.902 17.951h20.877v-35.275zm-190.48 109.346l7.834 94.004h78.72v-52.275l-27.817-41.729zm80.367 0l20.002 30.004h54.368l20.002-30.004zm116.002 0l-27.818 41.729v52.275h78.72l7.835-94.004zm-91.818 48v46.004h46.004v-46.004z"/></svg>
<svg x="249" y="-56" width="30" height="30" viewBox="0 0 512 512"><path fill="currentColor" d="M137 41v16.828c84.313 17.835 157.15 13.99 238 .348V41zm128 105.512c19.367-2.58 41.85-11.815 64.47-20.95c22.046-8.905 44.324-19.27 65.885-18.144c10.81.564 22.064 5.04 30.637 10.24c28.702 17.556 41.142 56.438 22.207 86.21c-14.93 23.473-47.34 33.593-71.794 17.155c-18.602-12.504-26.55-39.04-12.386-58.642c10.274-14.217 31.507-20.235 46.64-8.017a26.88 26.88 0 0 1 9.652 16.432c1.122 6.494-.45 14.17-5.81 19.734c-3.35 3.476-7.535 5.53-12.44 6.01c-4.904.478-11.24-1.43-14.904-6.47c4.576-2.843 16.11-12.02 15.426-16.203c-.334-1.935-1.69-4.25-3.223-5.486c-6.104-4.928-15.96-2.098-20.764 4.552c-7.58 10.49-2.957 25.878 7.843 33.138c15.324 10.302 36.736 3.615 46.583-11.87c13.114-20.618 4.17-48.587-16.414-61.177c-7.815-4.78-16.398-7.617-25.006-7.35c-8.258.254-17.547 2.213-26.84 6.013c-10.4 4.252-18.874 12.83-24.805 22.86c-19.115 32.318-5.055 74.713 26.97 93.2c38.652 22.313 88.847 5.406 110.478-32.932c25.616-45.4 5.766-103.877-39.133-128.802c-17.23-9.623-30.26-13.436-49.216-11.737c-37.342 3.348-69.34 13.7-124.06 14.55l-18-.01c-54.814-.904-84.714-10.723-124.016-14.764c-17.376-1.786-35.734 4.564-49.26 11.962c-44.898 24.925-64.748 83.402-39.132 128.802c21.63 38.338 71.826 55.245 110.478 32.932c32.025-18.487 46.085-60.882 26.97-93.2c-5.93-10.03-14.404-18.608-24.804-22.86c-9.293-3.8-18.582-5.76-26.84-6.014c-8.608-.266-17.19 2.572-25.005 7.35c-20.583 12.59-29.527 40.56-16.413 61.18c9.847 15.483 31.26 22.17 46.584 11.868c10.8-7.26 15.425-22.647 7.844-33.138c-4.804-6.65-14.66-9.48-20.765-4.55c-1.533 1.235-2.89 3.55-3.224 5.485c-.082 6.955 9.04 11.55 15.426 16.203c-3.664 5.04-10 6.948-14.904 6.47c-4.905-.48-9.09-2.534-12.44-6.01c-5.36-5.564-6.932-13.24-5.81-19.735a26.88 26.88 0 0 1 9.652-16.432c15.133-12.218 36.366-6.2 46.64 8.018c14.164 19.602 6.216 46.14-12.386 58.643C111.14 237.46 78.73 227.34 63.8 203.867c-18.934-29.77-6.494-68.653 22.208-86.21c9.37-6.07 19.283-9.443 30.637-10.24c21.537-1.51 43.84 9.24 65.884 18.144c22.62 9.137 45.103 18.372 64.47 20.952zm-76.287.98c9.008 16.32 11.675 34.306 9.12 51.508h116.335c-2.556-17.202.11-35.19 9.12-51.508c-19.145 7.748-38.797 15.19-58.288 17.217h-18c-19.49-2.03-39.144-9.47-58.287-17.218zM193.135 217a90.9 90.9 0 0 1-14.416 25.193l13.05 40.493L211.84 217zm43.025 0L256 281.934L275.84 217zm64 0L320 281.934l12.45-40.752A90.9 90.9 0 0 1 318.865 217zM224 238.8L201.94 311h44.12zm64 0L265.94 311h44.12zm58.826 16.934L329.94 311h37.007l-1.91-43.963a94 94 0 0 1-7.098-3.687a88 88 0 0 1-11.114-7.616zm-182.45.635a88 88 0 0 1-10.315 6.98a94 94 0 0 1-7.097 3.687L145.053 311h36.93zM144.27 329l-6.87 158h21.846l3.758-135.25l17.992.5L177.254 487h25.87L205 351.875l18 .25L221.127 487H247V352h18v135h25.873L289 352.125l18-.25L308.877 487h25.87l-3.743-134.75l17.992-.5L352.754 487H374.6l-6.87-158z"/></svg>
<svg x="249" y="-15" width="30" height="30" viewBox="0 0 512 512"><path fill="currentColor" d="M406.043 316c24.11 96.443-50.59 180-150 180s-174.405-82.38-150-180c15-60 90-150 150-300c60 150 135 240 150 300"/></svg>
<svg x="492" y="-15" width="30" height="30" viewBox="0 0 512 512"><path fill="currentColor" d="M26.883 21.834C102.82 75.45 177.283 165.46 199.53 258.05C160.38 175.252 85.277 94.86 23.06 68.24v35.356c199.378 131.08 141.663 248.82 332.307 393.043h57.326C350.65 457.5 294.07 404.046 257.266 324.38l-.012-.015v-.01l.012.024c60.613 77.353 142.26 138.53 237.125 172.26h.557V362.317c-105.79-32.628-179.012-83.115-223.68-138.996c55.382 48.512 146.278 89.87 223.68 102.787V275.3C401.507 267 302.38 216.88 233.89 153.82c-41.93-38.608-76.697-89.898-141.33-131.988H26.882zM379.75 124.93c-13.29 0-24.064 10.772-24.064 24.062s10.774 24.065 24.064 24.065s24.063-10.775 24.063-24.065s-10.773-24.062-24.063-24.062M28.875 159.018c57.203 45.017 125.82 141.277 113.432 200.084a20.5 20.5 0 0 0-7.13-1.297c-11.35 0-20.55 9.2-20.55 20.55c0 11.348 9.2 20.55 20.55 20.55c8.03 0 14.966-4.618 18.346-11.333c6.737-9.864 8.02-29.06 6.88-48.65c-4.168-71.813-54.245-147.98-131.528-179.904m420.65 6.11c-17.79 0-32.63 12.623-36.05 29.4c-29.74 7.17-71.18-.14-102.946-15.383c41.363 34.55 87.107 53.456 131.75 58.85c2.342.47 4.765.72 7.245.72c20.322 0 36.793-16.475 36.793-36.795s-16.47-36.793-36.793-36.793zM170.418 287.962c11.662 34.126 16.555 79.606 9.85 114.375c-8.134 5.784-13.446 15.28-13.446 26.02c0 17.625 14.288 31.913 31.914 31.913s31.914-14.287 31.914-31.913c0-6.315-1.84-12.195-5.005-17.15z"/></svg>
<use href="#door-open" x="75" y="-15" width="30" height="30" preserveAspectRatio="none" transform="rotate(90,90,0)"/>
<use href="#door-open" x="174" y="-15" width="30" height="30" preserveAspectRatio="none" transform="rotate(90,189,0)"/>
<use href="#door-open" x="324" y="-15" width="30" height="30" preserveAspectRatio="none" transform="rotate(90,339,0)"/>
<use href="#door-open" x="417" y="-15" width="30" height="30" preserveAspectRatio="none" transform="rotate(90,432,0)"/>
<text x="0" y="-47" text-anchor="middle" dominant-baseline="auto" fill="#333" font-size="9" font-family="sans-serif" font-weight="bold">1</text>
<text x="264" y="-47" text-anchor="middle" dominant-baseline="auto" fill="#333" font-size="9" font-family="sans-serif" font-weight="bold">2</text>
<text x="507" y="-32" text-anchor="middle" dominant-baseline="auto" fill="#333" font-size="9" font-family="sans-serif" font-weight="bold">3</text>
<text x="-110" y="100" fill="#333" font-size="10" font-family="sans-serif" font-weight="bold">Legend</text>
<text x="-110" y="114" fill="#555" font-size="9" font-family="serif" font-style="italic">1 - Cave</text>
<text x="-110" y="128" fill="#555" font-size="9" font-family="serif" font-style="italic">2 - Hall</text>
<text x="-110" y="142" fill="#555" font-size="9" font-family="serif" font-style="italic">3 - Stream</text>
</svg>