<?xml version="1.0" encoding="UTF-8"?>
<svg xmlns="http://www.w3.org/2000/svg"
     viewBox="-140 -140 749 366"
     width="749" height="366">
<defs>
  <pattern id="hatch" width="6" height="6"
           patternTransform="rotate(45 0 0)" patternUnits="userSpaceOnUse">
    <line x1="0" y1="0" x2="0" y2="6" stroke="#888" stroke-width="1.2"/>
  </pattern>

  <!-- ── Door symbols (viewBox 0 0 30 30, open gap fills corridor width) ── -->
  <symbol id="door-open" viewBox="0 0 30 30">
    <rect x="0"  y="12" width="30" height="6" fill="white"/>
    <rect x="0"  y="11" width="4"  height="8" fill="#333"/>
    <rect x="26" y="11" width="4"  height="8" fill="#333"/>
  </symbol>
  <symbol id="door-closed" viewBox="0 0 30 30">
    <rect x="0" y="12" width="30" height="6" fill="white"/>
    <rect x="2" y="13" width="26" height="4" fill="#333"/>
  </symbol>
  <symbol id="door-locked" viewBox="0 0 30 30">
    <rect x="0" y="12" width="30" height="6" fill="white"/>
    <rect x="2" y="11" width="26" height="8" fill="#333"/>
    <rect x="4" y="13" width="22" height="4" fill="white"/>
  </symbol>
  <symbol id="door-secret" viewBox="0 0 30 30">
    <line x1="0" y1="15" x2="30" y2="15"
          stroke="#888" stroke-width="1.2" stroke-dasharray="6,6"/>
  </symbol>

  <!-- ── Room feature symbols (viewBox 0 0 30 30, one grid cell) ── -->
  <symbol id="feat-ladder" viewBox="0 0 30 30">
    <line x1="8"  y1="3"  x2="8"  y2="27" stroke="#333" stroke-width="1.5"/>
    <line x1="22" y1="3"  x2="22" y2="27" stroke="#333" stroke-width="1.5"/>
    <line x1="8"  y1="7"  x2="22" y2="7"  stroke="#333" stroke-width="1"/>
    <line x1="8"  y1="13" x2="22" y2="13" stroke="#333" stroke-width="1"/>
    <line x1="8"  y1="19" x2="22" y2="19" stroke="#333" stroke-width="1"/>
    <line x1="8"  y1="25" x2="22" y2="25" stroke="#333" stroke-width="1"/>
  </symbol>
  <!-- Wall-placed feature symbols (30×30, designed to sit on a wall) -->
  <symbol id="feat-window" viewBox="0 0 30 6">
    <rect x="0"  y="0" width="30" height="6" fill="white"/>
    <rect x="0"  y="1" width="8"  height="4" fill="#cce" stroke="#99c" stroke-width="0.5"/>
    <rect x="11" y="1" width="8"  height="4" fill="#cce" stroke="#99c" stroke-width="0.5"/>
    <rect x="22" y="1" width="8"  height="4" fill="#cce" stroke="#99c" stroke-width="0.5"/>
  </symbol>
  <symbol id="feat-arrow-slit" viewBox="0 0 30 6">
    <rect x="0"  y="0" width="30" height="6" fill="white"/>
    <rect x="12" y="1" width="6"  height="4" fill="#555"/>
  </symbol>
  <symbol id="feat-illusory-wall" viewBox="0 0 30 4">
    <line x1="0" y1="2" x2="30" y2="2"
          stroke="#888" stroke-width="1.5" stroke-dasharray="4,3"/>
  </symbol>
  <symbol id="feat-fireplace" viewBox="0 0 30 20">
    <rect x="0"  y="0"  width="30" height="20" fill="#555" stroke="#333" stroke-width="1"/>
    <path d="M 7 19 L 7 8 A 8 8 0 0 1 23 8 L 23 19 Z" fill="white"/>
    <path d="M 11 17 Q 15 9 19 17" fill="none" stroke="#c63" stroke-width="1.5"/>
  </symbol>
  <symbol id="feat-bed" viewBox="0 0 30 24">
    <rect x="1"  y="1"  width="28" height="22" fill="white" stroke="#333" stroke-width="1"/>
    <rect x="1"  y="1"  width="28" height="7"  fill="#ddd" stroke="#333" stroke-width="0.5"/>
    <circle cx="8"  cy="5" r="3" fill="white" stroke="#333" stroke-width="0.5"/>
    <circle cx="22" cy="5" r="3" fill="white" stroke="#333" stroke-width="0.5"/>
  </symbol>
  <symbol id="feat-curtain" viewBox="0 0 30 16">
    <line x1="0" y1="2" x2="30" y2="2" stroke="#333" stroke-width="1.5"/>
    <path d="M 0 2 Q 3 14 6 8 Q 9 2 12 14 Q 15 2 18 14 Q 21 2 24 14 Q 27 2 30 8"
          fill="none" stroke="#333" stroke-width="1.2"/>
  </symbol>
</defs>
<rect x="-140" y="-140" width="749" height="366" fill="white"/>
<rect x="-140" y="-140" width="749" height="366" fill="url(#hatch)"/>
<rect x="57" y="-15" width="109" height="30" fill="white"/>
<rect x="340" y="-15" width="102" height="30" fill="white"/>
<rect x="-60" y="-60" width="120" height="120" fill="white"/>
<rect x="163" y="-60" width="180" height="120" fill="white"/>
<rect x="439" y="-45" width="90" height="90" fill="white"/>
<line x1="57" y1="-15" x2="166" y2="-15" stroke="#333" stroke-width="1.5"/>
<line x1="57" y1="15" x2="166" y2="15" stroke="#333" stroke-width="1.5"/>
<line x1="340" y1="-15" x2="442" y2="-15" stroke="#333" stroke-width="1.5"/>
<line x1="340" y1="15" x2="442" y2="15" stroke="#333" stroke-width="1.5"/>
<rect x="-60" y="-60" width="120" height="120" fill="none" stroke="#333" stroke-width="1.5"/>
<rect x="163" y="-60" width="180" height="120" fill="none" stroke="#333" stroke-width="1.5"/>
<rect x="439" y="-45" width="90" height="90" fill="none" stroke="#333" stroke-width="1.5"/>
<line x1="-30" y1="-60" x2="-30" y2="60" stroke="#d8d8d8" stroke-width="0.5"/>
<line x1="0" y1="-60" x2="0" y2="60" stroke="#d8d8d8" stroke-width="0.5"/>
<line x1="30" y1="-60" x2="30" y2="60" stroke="#d8d8d8" stroke-width="0.5"/>
<line x1="-60" y1="-30" x2="60" y2="-30" stroke="#d8d8d8" stroke-width="0.5"/>
<line x1="-60" y1="0" x2="60" y2="0" stroke="#d8d8d8" stroke-width="0.5"/>
<line x1="-60" y1="30" x2="60" y2="30" stroke="#d8d8d8" stroke-width="0.5"/>
<line x1="193" y1="-60" x2="193" y2="60" stroke="#d8d8d8" stroke-width="0.5"/>
<line x1="223" y1="-60" x2="223" y2="60" stroke="#d8d8d8" stroke-width="0.5"/>
<line x1="253" y1="-60" x2="253" y2="60" stroke="#d8d8d8" stroke-width="0.5"/>
<line x1="283" y1="-60" x2="283" y2="60" stroke="#d8d8d8" stroke-width="0.5"/>
<line x1="313" y1="-60" x2="313" y2="60" stroke="#d8d8d8" stroke-width="0.5"/>
<line x1="163" y1="-30" x2="343" y2="-30" stroke="#d8d8d8" stroke-width="0.5"/>
<line x1="163" y1="0" x2="343" y2="0" stroke="#d8d8d8" stroke-width="0.5"/>
<line x1="163" y1="30" x2="343" y2="30" stroke="#d8d8d8" stroke-width="0.5"/>
<line x1="469" y1="-45" x2="469" y2="45" stroke="#d8d8d8" stroke-width="0.5"/>
<line x1="499" y1="-45" x2="499" y2="45" stroke="#d8d8d8" stroke-width="0.5"/>
<line x1="439" y1="-15" x2="529" y2="-15" stroke="#d8d8d8" stroke-width="0.5"/>
<line x1="439" y1="15" x2="529" y2="15" stroke="#d8d8d8" stroke-width="0.5"/>
<line x1="87" y1="-15" x2="87" y2="15" stroke="#d8d8d8" stroke-width="0.5"/>
<line x1="117" y1="-15" x2="117" y2="15" stroke="#d8d8d8" stroke-width="0.5"/>
<line x1="147" y1="-15" x2="147" y2="15" stroke="#d8d8d8" stroke-width="0.5"/>
<line x1="370" y1="-15" x2="370" y2="15" stroke="#d8d8d8" stroke-width="0.5"/>
<line x1="400" y1="-15" x2="400" y2="15" stroke="#d8d8d8" stroke-width="0.5"/>
<line x1="430" y1="-15" x2="430" y2="15" stroke="#d8d8d8" stroke-width="0.5"/>

<use href="#door-open" x="45" y="-15" width="30" height="30" preserveAspectRatio="none" transform="rotate(90,60,0)"/>
<use href="#door-open" x="148" y="-15" width="30" height="30" preserveAspectRatio="none" transform="rotate(90,163,0)"/>
<use href="#door-secret" x="328" y="-15" width="30" height="30" preserveAspectRatio="none" transform="rotate(90,343,0)"/>
<text x="343" y="-21" text-anchor="middle" dominant-baseline="middle" fill="#888" font-size="8" font-family="sans-serif" font-weight="bold">S</text>
<use href="#door-secret" x="424" y="-15" width="30" height="30" preserveAspectRatio="none" transform="rotate(90,439,0)"/>
<text x="439" y="-21" text-anchor="middle" dominant-baseline="middle" fill="#888" font-size="8" font-family="sans-serif" font-weight="bold">S</text>
<text x="0" y="-47" text-anchor="middle" dominant-baseline="auto" fill="#333" font-size="9" font-family="sans-serif" font-weight="bold">1</text>
<text x="253" y="-47" text-anchor="middle" dominant-baseline="auto" fill="#333" font-size="9" font-family="sans-serif" font-weight="bold">2</text>
<text x="484" y="-32" text-anchor="middle" dominant-baseline="auto" fill="#333" font-size="9" font-family="sans-serif" font-weight="bold">3</text>
<text x="-80" y="100" fill="#333" font-size="10" font-family="sans-serif" font-weight="bold">Legend</text>
<text x="-80" y="114" fill="#555" font-size="9" font-family="serif" font-style="italic">1 - Entrance</text>
<text x="-80" y="128" fill="#555" font-size="9" font-family="serif" font-style="italic">2 - Hall</text>
<text x="-80" y="142" fill="#555" font-size="9" font-family="serif" font-style="italic">3 - Vault</text>
</svg>